<mxfile host="drawio-plugin" modified="2021-06-12T12:19:21.660Z" agent="5.0 (Macintosh; Intel Mac OS X 11_4_0) AppleWebKit/537.36 (KHTML, like Gecko) Chrome/87.0.4280.141 Safari/537.36" etag="bJzluRhmnzy0R2Sv1rcx" version="14.6.6" type="embed"><diagram id="OObuvOZbUCX7IEwI3Ohw" name="Page-1"><mxGraphModel dx="2584" dy="760" grid="1" gridSize="10" guides="1" tooltips="1" connect="1" arrows="1" fold="1" page="1" pageScale="1" pageWidth="850" pageHeight="1100" math="0" shadow="0"><root><mxCell id="0"/><mxCell id="1" parent="0"/><mxCell id="8" value="disp-epgu-in" style="rounded=1;whiteSpace=wrap;html=1;" vertex="1" parent="1"><mxGeometry x="-730" y="773.84" width="102" height="32.32" as="geometry"/></mxCell></root></mxGraphModel></diagram></mxfile>